<?xml version="1.0" encoding="utf-8"?>
<svg version="1.2" baseProfile="tiny" id="Logo" xmlns="http://www.w3.org/2000/svg" xmlns:xlink="http://www.w3.org/1999/xlink"
	 x="0px" y="0px" viewBox="0 0 512 512" overflow="visible" xml:space="preserve">
<path id="Ring_00000169532782907380620540000013425432804346912173_" fill="#07DD90" d="M400,111
	c159.6103516,0,289,129.3896332,289,289S559.6103516,689,400,689S111,559.6103516,111,400S240.3896484,111,400,111 M400,66
	c-45.0699463,0-88.8154297,8.8370895-130.0216064,26.2658157c-39.7780151,16.8245468-75.4925537,40.9011002-106.1520386,71.5605545
	c-30.6594238,30.6594543-54.7359619,66.3739929-71.5605469,106.1519928C74.8370972,311.1845398,66,354.9299927,66,400
	s8.8370972,88.8154602,26.2658081,130.0216064c16.824585,39.7780151,40.901123,75.4925537,71.5605469,106.1520386
	c30.6594849,30.6594238,66.3740234,54.7359619,106.1520386,71.5605469C311.1845703,725.1629028,354.9300537,734,400,734
	s88.8154297-8.8370972,130.0216064-26.2658081c39.7780762-16.824585,75.4925537-40.901123,106.1519775-71.5605469
	c30.6595459-30.6594849,54.736084-66.3740234,71.5605469-106.1520386C725.1629639,488.8154602,734,445.0700073,734,400
	s-8.8370361-88.8154602-26.2658691-130.021637c-16.8244629-39.7779999-40.901001-75.4925385-71.5605469-106.1519928
	c-30.6594238-30.6594543-66.3739014-54.7360077-106.1519775-71.5605545C488.8154297,74.8370895,445.0699463,66,400,66L400,66z"/>
</svg>
