<?xml version="1.0" encoding="utf-8"?>
<svg version="1.2" baseProfile="tiny" id="Logo" xmlns="http://www.w3.org/2000/svg" xmlns:xlink="http://www.w3.org/1999/xlink"
	 x="0px" y="0px" viewBox="0 0 512 512" overflow="visible" xml:space="preserve">
<path id="Ring" fill="#07DD9050" d="M400,150c138.071167,0,250,111.928772,250,250S538.071167,650,400,650S150,538.071167,150,400
	S261.928772,150,400,150 M400,144c-34.5571594,0-68.0837708,6.7693787-99.6486206,20.120224
	c-30.4849854,12.8940887-57.8620758,31.3517761-81.3707581,54.8603973
	c-23.5086212,23.5086823-41.9663086,50.8857727-54.8603973,81.3707581C150.7693787,331.9162292,144,365.4428406,144,400
	s6.7693787,68.0837708,20.120224,99.6486206c12.8940887,30.4849854,31.3517761,57.8620605,54.8603973,81.3706665
	c23.5086823,23.508728,50.8857727,41.9664307,81.3707581,54.8604736C331.9162292,649.2305908,365.4428406,656,400,656
	s68.0837708-6.7694092,99.6486206-20.1202393c30.4849854-12.894043,57.8620605-31.3517456,81.3706665-54.8604736
	c23.508728-23.508606,41.9664307-50.8856812,54.8604736-81.3706665C649.2305908,468.0837708,656,434.5571594,656,400
	s-6.7694092-68.0837708-20.1202393-99.6486206c-12.894043-30.4849854-31.3517456-57.8620758-54.8604736-81.3707581
	c-23.508606-23.5086212-50.8856812-41.9663086-81.3706665-54.8603973C468.0837708,150.7693787,434.5571594,144,400,144L400,144z"/>
<g id="Text">
	<circle fill="none" cx="400" cy="400" r="236.6020355"/>
	<path fill="#4C4C4C" d="M163.0585938,403.5595703l-62.9589844-2.2226562l0.3256836-9.2509766
		c0.1962891-5.5400391,1.8745117-9.5683594,5.0371094-12.0869141c3.1630859-2.5185547,7.7275391-3.6728516,13.6938477-3.4619141
		c3.5415039,0.125,6.5820312,0.8544922,9.121582,2.1875c2.5415039,1.3330078,4.3789062,2.90625,5.5151367,4.71875
		l30.1611328-5.2392578l-0.3266602,9.2509766l-26.7387695,4.2880859l-0.0581055,1.6269531l26.5546875,0.9375
		L163.0585938,403.5595703z M128.265625,393.0683594c0.0600586-1.7138672-0.2705078-3.0830078-0.9916992-4.109375
		c-0.7207031-1.0244141-1.7744141-1.7773438-3.1582031-2.2548828c-1.3833008-0.4775391-3.0317383-0.7509766-4.9453125-0.8183594
		c-2.9990234-0.1054688-5.3212891,0.3056641-6.9702148,1.2333984c-1.6479492,0.9287109-2.5170898,2.6923828-2.6088867,5.2900391
		L128.265625,393.0683594z"/>
	<path fill="#4C4C4C" d="M164.6845703,374.3925781l-62.4760742-8.0957031l1.1899414-9.1806641l62.4760742,8.0957031
		L164.6845703,374.3925781z"/>
	<path fill="#4C4C4C" d="M166.3979492,359.8310547l-61.3608398-14.2724609l1.9614258-8.4326172l33.9165039-0.9111328
		l3.0126953-0.0908203l0.1166992-0.5l-34.8129883-8.0976562l1.9228516-8.265625l61.3598633,14.2724609l-1.7666016,7.5976562
		l-34.1103516,1.7451172l-3.0136719,0.0917969l-0.1162109,0.5009766l34.8129883,8.0976562L166.3979492,359.8310547z"/>
	<path fill="#4C4C4C" d="M178.2416992,319.4199219c-0.9160156,2.3720703-2.2202148,4.0888672-3.9165039,5.1494141
		c-1.6958008,1.0615234-3.6396484,1.5742188-5.8305664,1.5400391c-2.1918945-0.0341797-4.4873047-0.5136719-6.8867188-1.4394531
		l-34.6254883-13.359375c-2.371582-0.9150391-4.3378906-2.2099609-5.8964844-3.8828125
		c-1.5600586-1.6738281-2.5717773-3.5947266-3.0361328-5.765625c-0.4643555-2.1689453-0.2436523-4.4267578,0.6606445-6.7734375
		c0.6889648-1.7851562,1.6357422-3.265625,2.8388672-4.4394531c1.2041016-1.1738281,2.5844727-2.0341797,4.1430664-2.5810547
		s3.2045898-0.7851562,4.9370117-0.7138672c1.7348633,0.0722656,3.4799805,0.4472656,5.2392578,1.1259766l9.0366211,3.4863281
		l-3.3330078,8.6367188l-9.0356445-3.4873047c-1.1738281-0.4521484-2.2680664-0.6298828-3.2856445-0.5322266
		c-1.0166016,0.0966797-1.7324219,0.6796875-2.144043,1.7451172c-0.4003906,1.0400391-0.2392578,1.9511719,0.4848633,2.7363281
		c0.722168,0.7841797,1.6303711,1.3876953,2.7236328,1.8085938l35.3447266,13.6376953
		c1.1464844,0.4423828,2.2397461,0.6035156,3.2807617,0.484375c1.0424805-0.1191406,1.7578125-0.6845703,2.1489258-1.6972656
		c0.4101562-1.0664062,0.2661133-1.9794922-0.4365234-2.7402344c-0.7016602-0.7597656-1.6254883-1.3623047-2.7719727-1.8046875
		l-9.8354492-3.7949219l-1.3261719,3.4384766l-8.0776367-3.1162109l4.6591797-12.0751953l29.2680664,11.2919922
		l-1.9750977,5.1181641l-3.5996094-0.1943359c0.9111328,1.2089844,1.4833984,2.5244141,1.7158203,3.9462891
		S178.7871094,318.0078125,178.2416992,319.4199219z"/>
	<path fill="#4C4C4C" d="M190.1948242,290.1582031l-54.6352539-31.3652344l10.9663086-19.1040039l8.2504883,4.7363281
		l-6.3579102,11.0756836l14.3466797,8.2363281l4.2675781-7.4335938l8.2514648,4.7373047l-4.2675781,7.4335938l23.7871094,13.6552734
		L190.1948242,290.1582031z"/>
	<path fill="#4C4C4C" d="M202.3574219,269.2861328l-50.7558594-37.3178711l5.4829102-7.4580078
		c3.2822266-4.4658203,6.9404297-6.847168,10.9726562-7.1459961c4.0317383-0.2983398,8.4521484,1.3212891,13.2631836,4.8579102
		c2.8554688,2.0986328,4.9560547,4.4140625,6.3012695,6.9472656c1.3481445,2.5332031,1.9799805,4.8686523,1.8974609,7.0058594
		l27.8666992,12.6699219l-5.4829102,7.4584961l-24.5043945-11.5273438l-0.965332,1.3120117l21.4082031,15.7397461
		L202.3574219,269.2861328z M179.527832,241.0112305c1.0151367-1.3813477,1.5146484-2.6982422,1.496582-3.953125
		c-0.0170898-1.2539062-0.4633789-2.4682617-1.3374023-3.6425781c-0.8740234-1.1748047-2.0830078-2.3291016-3.6245117-3.4628906
		c-2.4165039-1.7773438-4.5683594-2.7470703-6.4516602-2.9082031c-1.8847656-0.1621094-3.597168,0.8037109-5.1367188,2.8984375
		L179.527832,241.0112305z"/>
	<path fill="#4C4C4C" d="M218.215332,247.690918l-39.0126953-50.3720703l7.8105469-8.1860352l52.1479492,36.6049805
		l-6.2124023,6.5117188l-10.4863281-7.6347656l-6.152832,6.4492188l8.1191406,10.1157227L218.215332,247.690918z
		 M210.1269531,223.3886719l4.3789062-4.5893555l-17.1518555-12.6918945l-2.5957031-2.1210938l-0.3549805,0.371582
		l2.2407227,2.4931641L210.1269531,223.3886719z"/>
	<path fill="#4C4C4C" d="M241.1293945,223.7495117l-38.6054688-49.7841797l9.2797852-7.1962891l24.0078125,22.7075195
		l2.3876953,2.3793945l0.1352539-0.1054688l-1.7099609-2.9042969l-16.015625-28.9052734l9.2797852-7.1958008l38.6054688,49.7841797
		l-6.7724609,5.2524414l-25.8959961-33.3925781l-0.4057617,0.3149414l1.3569336,2.3100586l19.9311523,34.6542969
		l-3.7924805,2.9414062l-28.6005859-27.9306641l-1.9003906-1.8901367l-0.4052734,0.3149414l25.894043,33.3925781
		L241.1293945,223.7495117z"/>
	<path fill="#4C4C4C" d="M272.7949219,200.2075195l-31.3979492-54.6171875l18.3549805-10.5507812l4.7421875,8.2480469
		l-10.3305664,5.9375l8.4594727,14.7138672l7.4306641-4.2724609l4.6132812,8.0253906l-7.4306641,4.2724609l8.8417969,15.3818359
		l10.3300781-5.9379883l4.7412109,8.2485352L272.7949219,200.2075195z"/>
	<path fill="#4C4C4C" d="M301.1074219,184.7128906l-31.2226562-55.371582l7.9619141-3.1762695l15.5537109,29.0473633
		l0.921875,1.8466797l0.6357422-0.2539062l-0.5234375-2.0058594l-8.4677734-31.8730469l6.2099609-2.4765625l15.7919922,28.9511719
		l1.0009766,1.8149414l0.6376953-0.2539062l-0.6035156-1.9741211l-8.7070312-31.777832l7.9609375-3.175293l15.4589844,61.6591797
		l-6.6875,2.6679688l-15.0322266-26.1176758l-1.8427734-3.2333984l-0.3183594,0.1269531l0.8876953,3.6147461l7.0703125,29.2924805
		L301.1074219,184.7128906z"/>
	<path fill="#4C4C4C" d="M346.0078125,170.3178711c-2.5029297,0.5898438-4.7900391,0.5136719-6.859375-0.2314453
		c-2.0683594-0.7441406-3.8183594-2.0048828-5.25-3.7802734c-1.4326172-1.7753906-2.4443359-3.9150391-3.0351562-6.4174805
		l-8.5263672-36.1206055c-0.5966797-2.5297852-0.6503906-4.902832-0.1591797-7.1171875
		c0.4892578-2.2138672,1.4931641-4.1171875,3.0107422-5.7089844s3.5283203-2.6821289,6.0302734-3.2729492
		c2.5029297-0.590332,4.7880859-0.5136719,6.8583984,0.230957c2.0693359,0.7441406,3.8193359,2.0043945,5.2509766,3.7802734
		c1.4326172,1.7753906,2.4443359,3.9150391,3.0341797,6.4169922l8.5253906,36.1210938
		c0.5917969,2.5019531,0.6435547,4.8676758,0.15625,7.0961914c-0.4853516,2.2290039-1.4882812,4.1381836-3.0058594,5.7299805
		C350.5195312,168.6362305,348.5087891,169.7265625,346.0078125,170.3178711z M343.9404297,161.5581055
		c1.1113281-0.2626953,1.7792969-0.9121094,2.0058594-1.9482422c0.2246094-1.0366211,0.203125-2.1245117-0.0673828-3.265625
		l-8.5253906-36.1206055c-0.2695312-1.1396484-0.75-2.1191406-1.4433594-2.9399414
		c-0.6923828-0.8198242-1.5673828-1.1054688-2.6230469-0.8554688c-1.0292969,0.2431641-1.6767578,0.887207-1.9443359,1.9335938
		c-0.2666016,1.046875-0.2646484,2.1401367,0.0039062,3.2797852l8.5263672,36.1206055
		c0.2685547,1.140625,0.7490234,2.1206055,1.4423828,2.9404297
		C342.0078125,161.5229492,342.8818359,161.8081055,343.9404297,161.5581055z"/>
	<path fill="#4C4C4C" d="M362.4580078,166.0488281l-6.9003906-62.6196289l9.2011719-1.0136719
		c5.5087891-0.6074219,9.7382812,0.4716797,12.6884766,3.2368164c2.9482422,2.7651367,4.75,7.1152344,5.4042969,13.050293
		c0.3886719,3.5214844,0.1064453,6.6357422-0.8466797,9.3417969c-0.9511719,2.7070312-2.2421875,4.7524414-3.8710938,6.1396484
		l9.5429688,29.0859375l-9.2011719,1.0146484l-8.1083984-25.8388672l-1.6181641,0.1782227l2.9091797,26.4106445
		L362.4580078,166.0488281z M367.8105469,130.1040039c1.703125-0.1875,3.0107422-0.7119141,3.9208984-1.5742188
		c0.9121094-0.8613281,1.5029297-2.0126953,1.7763672-3.4511719c0.2734375-1.4375,0.3046875-3.1088867,0.0947266-5.0117188
		c-0.3291016-2.9819336-1.0703125-5.2207031-2.2275391-6.7177734c-1.15625-1.4960938-3.0283203-2.1025391-5.6123047-1.8178711
		L367.8105469,130.1040039z"/>
	<path fill="#4C4C4C" d="M391.0615234,163.1635742l0.9892578-62.9902344l9.2548828,0.1445312l-0.3300781,20.9970703
		l-0.0146484,1.0288086l0.3417969,0.0048828l0.4443359-1.0209961l7.5292969-20.8842773l9.5126953,0.1489258l-8.8095703,20.6064453
		l8.9355469,42.4018555l-9.5136719-0.1494141l-5.7197266-28.8066406l-0.2568359-0.0039062l-2.7578125,6.3862305
		l-0.3486328,22.2822266L391.0615234,163.1635742z"/>
</g>
</svg>
